<svg width="24" height="24" viewBox="0 0 24 24" fill="none" xmlns="http://www.w3.org/2000/svg">
<path d="M9.10706 2.67401C10.0064 2.22905 10.9966 1.99836 12.0001 2.00001C15.7271 2.00001 18.7501 5.13601 18.7501 9.00501V9.71001C18.7489 10.5516 18.989 11.3758 19.4421 12.085L20.5501 13.809C21.5611 15.384 20.7891 17.525 19.0301 18.023C14.4338 19.3247 9.56635 19.3247 4.97006 18.023C3.21106 17.525 2.43906 15.384 3.45006 13.81L4.55806 12.085C5.01111 11.3758 5.25127 10.5516 5.25006 9.71001V9.00501C5.25006 7.93101 5.48306 6.91301 5.90006 6.00301M7.50006 19C8.15506 20.748 9.92206 22 12.0001 22C12.2447 22 12.4847 21.9833 12.7201 21.95M16.5001 19C16.2292 19.7139 15.7811 20.3471 15.1981 20.84" stroke="#0085FF" stroke-width="1.5" stroke-linecap="round"/>
</svg>
