<svg width="24" height="24" viewBox="0 0 24 24" fill="none" xmlns="http://www.w3.org/2000/svg">
<path d="M9 4.49996H8C5.643 4.49996 4.464 4.49996 3.732 5.23196C3 5.96396 3 7.14296 3 9.49996V9.99996M9 19.5H8C5.643 19.5 4.464 19.5 3.732 18.768C3 18.035 3 16.857 3 14.5V14M13.658 2.34696C11.496 1.96996 10.415 1.78196 9.708 2.40896C9.001 3.03596 9 4.18296 9 6.47596V17.524C9 19.817 9 20.964 9.707 21.591C10.414 22.218 11.495 22.03 13.657 21.653L15.987 21.247C18.381 20.829 19.578 20.62 20.289 19.742C21 18.863 21 17.593 21 15.052V8.94796C21 6.40796 21 5.13796 20.29 4.25896C19.814 3.67196 19.122 3.38396 18 3.13296M12 11V13" stroke="#FF2A14" stroke-width="1.5" stroke-linecap="round"/>
</svg>
