<svg xmlns="http://www.w3.org/2000/svg" width="18" height="20" viewBox="0 0 18 20" fill="none">
  <path fill-rule="evenodd" clip-rule="evenodd" d="M8.18624 0.641729C9.73367 -0.21391 11.6361 -0.21391 13.1835 0.641729C13.757 0.958497 14.2922 1.47006 15.1615 2.30294L15.2462 2.38486L15.3354 2.46952C16.2001 3.29785 16.7372 3.81214 17.0703 4.36376C17.5151 5.09591 17.7502 5.93612 17.7502 6.79277C17.7502 7.64942 17.5151 8.48962 17.0703 9.22178C16.7372 9.7743 16.201 10.2868 15.3354 11.1151L15.2462 11.2016L8.4584 17.7008C7.97597 18.1614 7.58456 18.5382 7.23866 18.8168C6.88093 19.1044 6.52867 19.3274 6.1145 19.4467C5.53848 19.6125 4.92736 19.6125 4.35134 19.4467C3.93808 19.3283 3.58582 19.1044 3.22809 18.8168C2.88219 18.5373 2.48987 18.1614 2.00835 17.7008L1.96465 17.6589C1.48313 17.1974 1.09081 16.8215 0.799529 16.4911C0.499145 16.1488 0.260658 15.8056 0.132313 15.3979C-0.0441042 14.8327 -0.0441042 14.2272 0.132313 13.662C0.259748 13.2542 0.498235 12.911 0.799529 12.5697C1.09081 12.2384 1.48313 11.8624 1.96465 11.4009L8.65502 4.99456L8.72693 4.92629C9.06281 4.60406 9.3459 4.33099 9.6745 4.17988C9.96097 4.04803 10.2726 3.97975 10.5879 3.97975C10.9033 3.97975 11.2149 4.04803 11.5014 4.17988C11.8291 4.33099 12.1131 4.60406 12.449 4.92629L12.5209 4.99456L12.5937 5.06556C12.9277 5.38415 13.2154 5.65814 13.3765 5.97855C13.5187 6.25992 13.5928 6.57079 13.5928 6.88607C13.5928 7.20135 13.5187 7.51222 13.3765 7.79359C13.2822 7.97321 13.1623 8.13817 13.0206 8.28331C12.8913 8.42167 12.7266 8.58005 12.5336 8.76483L5.80319 15.2094C5.67247 15.3347 5.49732 15.403 5.31629 15.3991C5.13526 15.3953 4.96316 15.3197 4.83787 15.1889C4.71257 15.0582 4.64434 14.8831 4.64818 14.702C4.65203 14.521 4.72762 14.3489 4.85835 14.2236L11.576 7.79086C11.7854 7.5906 11.9219 7.45953 12.0202 7.35394C12.0726 7.30175 12.1185 7.24336 12.1568 7.18008C12.2033 7.08905 12.2275 6.98829 12.2275 6.88607C12.2275 6.78385 12.2033 6.68309 12.1568 6.59206C12.1167 6.51195 12.0266 6.41183 11.576 5.98128C11.1282 5.55255 11.0208 5.46243 10.9297 5.41965C10.8226 5.37056 10.7062 5.34515 10.5884 5.34515C10.4706 5.34515 10.3542 5.37056 10.2471 5.41965C10.1551 5.46243 10.0468 5.55255 9.59986 5.98128L2.93043 12.3667C2.42251 12.8537 2.07206 13.1896 1.82447 13.4708C1.58144 13.7476 1.48222 13.9223 1.43489 14.0716C1.34213 14.3704 1.34213 14.6903 1.43489 14.9891C1.48222 15.1375 1.58053 15.3123 1.82447 15.589C2.07206 15.8712 2.42251 16.2062 2.93043 16.6931C3.44017 17.1801 3.79062 17.516 4.08554 17.7536C4.37318 17.9857 4.56161 18.0858 4.72909 18.1341C5.0577 18.2287 5.40905 18.2287 5.73765 18.1341C5.90514 18.0858 6.09356 17.9857 6.3812 17.7536C6.67613 17.516 7.02748 17.1801 7.53632 16.6931L14.3022 10.2149C15.2853 9.27366 15.674 8.89227 15.9006 8.51633C16.2159 7.99672 16.3827 7.40056 16.3827 6.79277C16.3827 6.18497 16.2159 5.58882 15.9006 5.0692C15.674 4.69327 15.2853 4.31187 14.3022 3.37067C13.3201 2.43129 12.9205 2.05626 12.5236 1.83689C11.9602 1.52791 11.3279 1.36594 10.6853 1.36594C10.0427 1.36594 9.41052 1.52791 8.84708 1.83689C8.4493 2.05535 8.0497 2.43129 7.06845 3.37067L1.61603 8.59097C1.4838 8.70742 1.31167 8.76824 1.13564 8.7607C0.959605 8.75317 0.793302 8.67787 0.671507 8.55055C0.549713 8.42323 0.48186 8.25375 0.482139 8.07756C0.482418 7.90137 0.550807 7.7321 0.673003 7.60517L6.12542 2.38486L6.21008 2.30294C7.07937 1.47097 7.61369 0.958497 8.18624 0.641729Z" fill="#404959"/>
</svg>
