<svg width="42" height="42" viewBox="0 0 42 42" fill="none" xmlns="http://www.w3.org/2000/svg">
<path d="M5.8 36C4.755 36 3.86073 35.6331 3.1172 34.8994C2.37367 34.1656 2.00127 33.2825 2 32.25V9.75C2 8.71875 2.3724 7.83625 3.1172 7.1025C3.862 6.36875 4.75627 6.00125 5.8 6H36.2C37.245 6 38.1399 6.3675 38.8847 7.1025C39.6295 7.8375 40.0013 8.72 40 9.75V32.25C40 33.2812 39.6282 34.1644 38.8847 34.8994C38.1412 35.6344 37.2463 36.0012 36.2 36H5.8ZM21.4997 22.4775C21.6732 22.43 21.8392 22.3594 21.9975 22.2656L35.44 13.9687C35.6933 13.8125 35.8833 13.6175 36.01 13.3837C36.1367 13.15 36.2 12.8919 36.2 12.6094C36.2 11.9844 35.9308 11.5156 35.3925 11.2031C34.8542 10.8906 34.3 10.9062 33.73 11.25L21 19.125L8.27 11.25C7.7 10.9062 7.14583 10.8987 6.6075 11.2275C6.06917 11.5562 5.8 12.0169 5.8 12.6094C5.8 12.9219 5.86333 13.1956 5.99 13.4306C6.11667 13.6656 6.30667 13.845 6.56 13.9687L20.0025 22.2656C20.1608 22.3594 20.3274 22.43 20.5022 22.4775C20.677 22.525 20.8429 22.5481 21 22.5469C21.1571 22.5456 21.3236 22.5225 21.4997 22.4775Z" fill="#0085FF"/>
</svg>
