<svg width="19" height="19" viewBox="0 0 19 19" fill="none" xmlns="http://www.w3.org/2000/svg">
<path d="M10.0204 11.326C8.05686 12.1114 7.07511 12.5041 6.51496 12.1233C6.38185 12.0328 6.26707 11.9181 6.17666 11.785C5.79586 11.224 6.18856 10.2431 6.97396 8.27956C7.14141 7.86051 7.22471 7.65056 7.36921 7.48651C7.40604 7.44457 7.44542 7.40547 7.48736 7.36921C7.65141 7.22471 7.86136 7.14141 8.27956 6.97396C10.2431 6.18856 11.224 5.79586 11.785 6.17666C11.9181 6.26707 12.0328 6.38185 12.1233 6.51496C12.5041 7.07596 12.1114 8.05686 11.326 10.0204C11.1585 10.4394 11.0744 10.6485 10.9307 10.8126C10.8933 10.8539 10.8539 10.8933 10.8126 10.9307C10.6485 11.0752 10.4386 11.1585 10.0204 11.326Z" stroke="#0085FF" stroke-width="1.3"/>
<path d="M4.8999 1.78721C6.19143 1.03983 7.65771 0.647453 9.1499 0.649914C13.8445 0.649914 17.6499 4.45536 17.6499 9.14991C17.6499 13.8445 13.8445 17.6499 9.1499 17.6499C4.45535 17.6499 0.649902 13.8445 0.649902 9.14991C0.649902 7.60206 1.06385 6.14941 1.7872 4.89991" stroke="#0085FF" stroke-width="1.3" stroke-linecap="round"/>
</svg>
