<svg xmlns="http://www.w3.org/2000/svg" width="14" height="10" viewBox="0 0 14 10" fill="none">
  <path fill-rule="evenodd" clip-rule="evenodd" d="M13.7839 0.219883C13.9223 0.360717 14 0.551702 14 0.750841C14 0.949979 13.9223 1.14097 13.7839 1.2818L5.48717 9.7253C5.41178 9.80205 5.32227 9.86294 5.22375 9.90448C5.12523 9.94602 5.01964 9.9674 4.913 9.9674C4.80636 9.9674 4.70076 9.94602 4.60224 9.90448C4.50372 9.86294 4.41421 9.80205 4.33882 9.7253L0.216279 5.53021C0.14771 5.46044 0.0933185 5.3776 0.0562092 5.28643C0.0190999 5.19527 7.22492e-10 5.09756 0 4.99888C-7.22492e-10 4.9002 0.0190999 4.80249 0.0562092 4.71132C0.0933185 4.62016 0.14771 4.53732 0.216279 4.46755C0.284848 4.39777 0.366252 4.34242 0.455841 4.30466C0.545431 4.2669 0.641453 4.24746 0.738424 4.24746C0.835395 4.24746 0.931417 4.2669 1.02101 4.30466C1.1106 4.34242 1.192 4.39777 1.26057 4.46755L4.91374 8.185L12.7396 0.219883C12.878 0.0790921 13.0657 0 13.2614 0C13.4571 0 13.6455 0.0790921 13.7839 0.219883Z" fill="#0085FF"/>
</svg>
