<svg width="19" height="15" viewBox="0 0 19 15" fill="none" xmlns="http://www.w3.org/2000/svg">
<path d="M6.58745 1.0285C7.41199 0.766534 8.2723 0.634619 9.13745 0.637497C12.6922 0.637497 15.1113 2.7625 16.5537 4.6359C17.2762 5.576 17.6375 6.04435 17.6375 7.4375C17.6375 8.8315 17.2762 9.29985 16.5537 10.2391C15.1113 12.1125 12.6922 14.2375 9.13745 14.2375C5.58275 14.2375 3.16365 12.1125 1.7212 10.2391C0.998701 9.3007 0.637451 8.83065 0.637451 7.4375C0.637451 6.0435 0.998701 5.57515 1.7212 4.6359C2.16193 4.0603 2.65258 3.5247 3.18745 3.03535" stroke="#B8BFCB" stroke-width="1.275" stroke-linecap="round"/>
<path d="M12.5375 7.4376C12.5375 8.33933 12.1793 9.20414 11.5417 9.84176C10.9041 10.4794 10.0393 10.8376 9.13755 10.8376C8.23581 10.8376 7.37101 10.4794 6.73339 9.84176C6.09576 9.20414 5.73755 8.33933 5.73755 7.4376C5.73755 6.53586 6.09576 5.67106 6.73339 5.03343C7.37101 4.39581 8.23581 4.0376 9.13755 4.0376C10.0393 4.0376 10.9041 4.39581 11.5417 5.03343C12.1793 5.67106 12.5375 6.53586 12.5375 7.4376Z" stroke="#B8BFCB" stroke-width="1.275"/>
</svg>
