<svg width="20" height="20" viewBox="0 0 20 20" fill="none" xmlns="http://www.w3.org/2000/svg">
<rect x="0.35" y="0.35" width="19.3" height="19.3" rx="3.65" fill="#0085FF"/>
<rect x="0.35" y="0.35" width="19.3" height="19.3" rx="3.65" stroke="#0085FF" stroke-width="0.7"/>
<path fill-rule="evenodd" clip-rule="evenodd" d="M15.8148 6.18847C15.9334 6.30919 16 6.47289 16 6.64358C16 6.81427 15.9334 6.97797 15.8148 7.09868L8.70329 14.336C8.63867 14.4018 8.56195 14.4539 8.4775 14.4896C8.39306 14.5252 8.30255 14.5435 8.21114 14.5435C8.11973 14.5435 8.02922 14.5252 7.94478 14.4896C7.86033 14.4539 7.78361 14.4018 7.71899 14.336L4.18538 10.7402C4.12661 10.6804 4.07999 10.6094 4.04818 10.5312C4.01637 10.4531 4 10.3693 4 10.2848C4 10.2002 4.01637 10.1164 4.04818 10.0383C4.07999 9.96013 4.12661 9.88913 4.18538 9.82932C4.24416 9.76952 4.31393 9.72207 4.39072 9.68971C4.46751 9.65734 4.54982 9.64068 4.63293 9.64068C4.71605 9.64068 4.79836 9.65734 4.87515 9.68971C4.95194 9.72207 5.02171 9.76952 5.08049 9.82932L8.21177 13.0157L14.9197 6.18847C15.0383 6.06779 15.1992 6 15.3669 6C15.5347 6 15.6962 6.06779 15.8148 6.18847Z" fill="white"/>
</svg>
