<svg width="40" height="40" viewBox="0 0 40 40" fill="none" xmlns="http://www.w3.org/2000/svg">
<g clip-path="url(#clip0_1048_6153)">
<rect width="40" height="40" rx="20" fill="#F3F4F6"/>
<path d="M20 27.75C28.2874 27.75 34.9999 31.1063 35 35.25V39H28V47H13V39H5V35.25C5.00013 31.1064 11.7128 27.7501 20 27.75ZM20 9C21.9891 9 23.8972 9.79074 25.3037 11.1973C26.7101 12.6037 27.5 14.511 27.5 16.5C27.5 18.4891 26.7102 20.3972 25.3037 21.8037C23.8972 23.2101 21.9891 24 20 24C18.0111 23.9999 16.1037 23.21 14.6973 21.8037C13.2907 20.3972 12.5 18.4891 12.5 16.5C12.5 14.511 13.2909 12.6037 14.6973 11.1973C16.1037 9.79084 18.011 9.00011 20 9Z" fill="#CFD3DA"/>
</g>
<defs>
<clipPath id="clip0_1048_6153">
<rect width="40" height="40" rx="20" fill="white"/>
</clipPath>
</defs>
</svg>
