<svg xmlns="http://www.w3.org/2000/svg" width="20" height="22" viewBox="0 0 20 22" fill="none">
  <path d="M18.748 8.75C18.736 6.575 18.64 5.397 17.871 4.629C16.993 3.75 15.578 3.75 12.75 3.75H9.75C6.922 3.75 5.507 3.75 4.629 4.629C3.75 5.507 3.75 6.922 3.75 9.75V14.75C3.75 17.578 3.75 18.993 4.629 19.871C5.507 20.75 6.922 20.75 9.75 20.75H12.75C15.578 20.75 16.993 20.75 17.871 19.871C18.75 18.993 18.75 17.578 18.75 14.75V13.75" stroke="#B8BFCB" stroke-width="1.5" stroke-linecap="round"/>
  <path d="M0.75 8.75V14.75C0.75 15.5456 1.06607 16.3087 1.62868 16.8713C2.19129 17.4339 2.95435 17.75 3.75 17.75M15.75 3.75C15.75 2.95435 15.4339 2.19129 14.8713 1.62868C14.3087 1.06607 13.5456 0.75 12.75 0.75H8.75C4.979 0.75 3.093 0.75 1.922 1.922C1.268 2.575 0.979 3.45 0.852 4.75" stroke="#B8BFCB" stroke-width="1.5" stroke-linecap="round"/>
</svg>
