<svg xmlns="http://www.w3.org/2000/svg" width="24" height="24" viewBox="0 0 24 24" fill="none">
  <path d="M13 2.5V5C13 7.357 13 8.536 13.732 9.268C14.464 10 15.643 10 18 10H22" stroke="#FF2A14" stroke-width="1.5"/>
  <path d="M6 18L9 15M9 18L6 15" stroke="#FF2A14" stroke-width="1.5" stroke-linecap="round"/>
  <path d="M2.75 10.0001C2.75 9.80114 2.67098 9.61038 2.53033 9.46973C2.38968 9.32907 2.19891 9.25006 2 9.25006C1.80109 9.25006 1.61032 9.32907 1.46967 9.46973C1.32902 9.61038 1.25 9.80114 1.25 10.0001H2.75ZM21.25 14.0001C21.25 14.199 21.329 14.3897 21.4697 14.5304C21.6103 14.671 21.8011 14.7501 22 14.7501C22.1989 14.7501 22.3897 14.671 22.5303 14.5304C22.671 14.3897 22.75 14.199 22.75 14.0001H21.25ZM1.355 5.92706C1.33564 6.12504 1.39572 6.32261 1.52203 6.47629C1.64833 6.62998 1.83052 6.72719 2.0285 6.74656C2.22649 6.76592 2.42405 6.70584 2.57774 6.57953C2.73142 6.45322 2.82864 6.27104 2.848 6.07306L1.355 5.92706ZM22.645 18.0731C22.6546 17.975 22.6448 17.8761 22.6161 17.7818C22.5875 17.6876 22.5405 17.5999 22.478 17.5238C22.4154 17.4477 22.3385 17.3847 22.2516 17.3383C22.1647 17.2919 22.0695 17.2631 21.9715 17.2536C21.8735 17.244 21.7745 17.2538 21.6803 17.2824C21.586 17.3111 21.4984 17.358 21.4223 17.4206C21.2686 17.5469 21.1714 17.7291 21.152 17.9271L22.645 18.0731ZM14 21.2501H10V22.7501H14V21.2501ZM2.75 14.0001V10.0001H1.25V14.0001H2.75ZM21.25 13.5631V14.0001H22.75V13.5631H21.25ZM14.891 4.61106L18.85 8.17406L19.853 7.05806L15.895 3.49506L14.891 4.61106ZM22.75 13.5631C22.75 11.8741 22.765 10.8041 22.34 9.84805L20.969 10.4591C21.235 11.0571 21.25 11.7421 21.25 13.5631H22.75ZM18.85 8.17406C20.203 9.39206 20.703 9.86205 20.969 10.4591L22.34 9.84805C21.914 8.89106 21.109 8.18806 19.853 7.05806L18.85 8.17406ZM10.03 2.75006C11.612 2.75006 12.209 2.76206 12.74 2.96606L13.278 1.56606C12.426 1.23806 11.498 1.25006 10.03 1.25006V2.75006ZM15.895 3.49606C14.809 2.51906 14.13 1.89206 13.278 1.56606L12.741 2.96606C13.273 3.17006 13.721 3.55806 14.891 4.61106L15.895 3.49606ZM10 21.2501C8.093 21.2501 6.739 21.2481 5.71 21.1101C4.705 20.9751 4.125 20.7211 3.702 20.2981L2.642 21.3581C3.39 22.1081 4.339 22.4391 5.511 22.5971C6.661 22.7521 8.136 22.7501 10 22.7501V21.2501ZM1.25 14.0001C1.25 15.8641 1.248 17.3381 1.403 18.4891C1.561 19.6611 1.893 20.6101 2.641 21.3591L3.701 20.2991C3.279 19.8751 3.025 19.2951 2.89 18.2891C2.752 17.2621 2.75 15.9071 2.75 14.0001H1.25ZM14 22.7501C15.864 22.7501 17.338 22.7521 18.489 22.5971C19.661 22.4391 20.61 22.1071 21.359 21.3591L20.299 20.2991C19.875 20.7211 19.295 20.9751 18.289 21.1101C17.262 21.2481 15.907 21.2501 14 21.2501V22.7501ZM10.03 1.25006C8.155 1.25006 6.674 1.24806 5.519 1.40306C4.342 1.56106 3.39 1.89306 2.641 2.64106L3.701 3.70106C4.125 3.27906 4.706 3.02506 5.718 2.89006C6.751 2.75206 8.113 2.75006 10.03 2.75006V1.25006ZM2.848 6.07306C2.969 4.83906 3.23 4.17306 3.702 3.70206L2.642 2.64206C1.806 3.47606 1.489 4.56106 1.355 5.92706L2.848 6.07306ZM21.152 17.9271C21.031 19.1611 20.769 19.8271 20.298 20.2981L21.358 21.3581C22.194 20.5241 22.511 19.4391 22.645 18.0731L21.152 17.9271Z" fill="#FF2A14"/>
</svg>
