<svg width="20" height="20" viewBox="0 0 20 20" fill="none" xmlns="http://www.w3.org/2000/svg">
<g clip-path="url(#clip0_1759_13146)">
<path d="M3.06684 10.8342L2.62684 11.2775C2.74389 11.3935 2.90203 11.4586 3.06684 11.4586C3.23165 11.4586 3.38979 11.3935 3.50684 11.2775L3.06684 10.8342ZM4.90684 9.88918C5.02464 9.77226 5.09117 9.61334 5.09179 9.44737C5.09242 9.2814 5.02709 9.12198 4.91017 9.00418C4.85228 8.94585 4.78347 8.89949 4.70766 8.86776C4.63185 8.83602 4.55054 8.81953 4.46836 8.81922C4.30239 8.81859 4.14297 8.88393 4.02517 9.00084L4.90684 9.88918ZM2.10684 9.00084C1.9885 8.88739 1.83032 8.82498 1.6664 8.82706C1.50247 8.82914 1.34593 8.89553 1.2305 9.01195C1.11508 9.12836 1.05001 9.28546 1.04932 9.44939C1.04864 9.61333 1.11239 9.77097 1.22684 9.88834L2.10684 9.00084ZM15.5135 6.16084C15.5554 6.23298 15.6113 6.29601 15.6779 6.3462C15.7446 6.39639 15.8206 6.43273 15.9015 6.45308C15.9824 6.47344 16.0666 6.47739 16.149 6.4647C16.2315 6.45202 16.3105 6.42296 16.3816 6.37923C16.4526 6.3355 16.5142 6.27799 16.5627 6.21009C16.6111 6.1422 16.6455 6.06528 16.6638 5.98388C16.6821 5.90249 16.6839 5.81826 16.6691 5.73615C16.6543 5.65405 16.6232 5.57574 16.5777 5.50584L15.5135 6.16084ZM14.0777 3.00668C14.0078 2.96114 13.9295 2.93007 13.8474 2.91527C13.7653 2.90048 13.681 2.90228 13.5996 2.92055C13.5182 2.93883 13.4413 2.97321 13.3734 3.02168C13.3055 3.07015 13.248 3.13172 13.2043 3.20276C13.1606 3.27381 13.1315 3.35289 13.1188 3.43534C13.1061 3.51779 13.1101 3.60195 13.1304 3.68285C13.1508 3.76376 13.1871 3.83977 13.2373 3.9064C13.2875 3.97304 13.3505 4.02895 13.4227 4.07084L14.0777 3.00668ZM10.386 3.13251C10.55 3.13811 10.7097 3.07898 10.8305 2.96788C10.9512 2.85678 11.0235 2.70263 11.0316 2.53871C11.0397 2.3748 10.983 2.21427 10.8737 2.09181C10.7645 1.96934 10.6114 1.89476 10.4477 1.88418L10.386 3.13251ZM10.0668 1.87584C5.861 1.87584 2.44184 5.26001 2.44184 9.44501H3.69184C3.69184 5.96001 6.54184 3.12584 10.0668 3.12584V1.87584ZM2.44184 9.44501V10.8342H3.69184V9.44501H2.44184ZM3.5085 11.2783L4.90684 9.88918L4.02517 9.00084L2.62517 10.39L3.5085 11.2783ZM3.5085 10.3908L2.10684 9.00084L1.226 9.88834L2.626 11.2767L3.5085 10.3908ZM16.5785 5.50751C15.9523 4.49001 15.096 3.63371 14.0785 3.00751L13.4235 4.07168C14.2744 4.59513 14.9905 5.311 15.5143 6.16168L16.5785 5.50751ZM10.4477 1.88418C10.3205 1.87788 10.1933 1.87483 10.066 1.87501V3.12501C10.1732 3.12501 10.2799 3.12779 10.386 3.13334L10.4477 1.88418ZM16.9277 9.16751L17.3677 8.72334C17.2507 8.60757 17.0927 8.54263 16.9281 8.54263C16.7635 8.54263 16.6055 8.60757 16.4885 8.72334L16.9277 9.16751ZM15.0835 10.1117C15.0251 10.1694 14.9787 10.2381 14.9468 10.3137C14.915 10.3894 14.8984 10.4706 14.8979 10.5527C14.8969 10.7185 14.9619 10.8779 15.0785 10.9958C15.1951 11.1138 15.3537 11.1805 15.5196 11.1815C15.6854 11.1824 15.8448 11.1174 15.9627 11.0008L15.0835 10.1117ZM17.8943 11.0008C17.9524 11.0601 18.0216 11.1072 18.0981 11.1394C18.1745 11.1716 18.2566 11.1882 18.3395 11.1884C18.4224 11.1886 18.5045 11.1722 18.5811 11.1403C18.6577 11.1084 18.7271 11.0616 18.7854 11.0026C18.8437 10.9436 18.8896 10.8736 18.9206 10.7967C18.9515 10.7197 18.9669 10.6374 18.9657 10.5545C18.9645 10.4716 18.9468 10.3897 18.9137 10.3137C18.8805 10.2377 18.8326 10.169 18.7727 10.1117L17.8943 11.0008ZM4.43184 13.8392C4.34476 13.6981 4.20519 13.5973 4.04383 13.5591C3.88247 13.5209 3.71254 13.5483 3.57142 13.6354C3.4303 13.7225 3.32956 13.8621 3.29135 14.0234C3.25314 14.1848 3.28059 14.3547 3.36767 14.4958L4.43184 13.8392ZM9.611 16.8692C9.44535 16.8619 9.28359 16.9207 9.1613 17.0327C9.03901 17.1446 8.96621 17.3006 8.95892 17.4663C8.95163 17.6319 9.01044 17.7937 9.12241 17.916C9.23439 18.0383 9.39035 18.111 9.556 18.1183L9.611 16.8692ZM5.92767 17.0258C6.06967 17.1114 6.23983 17.137 6.40073 17.0971C6.56162 17.0571 6.70005 16.9549 6.78559 16.8129C6.87112 16.6709 6.89674 16.5008 6.85681 16.3399C6.81688 16.179 6.71467 16.0405 6.57267 15.955L5.92767 17.0258ZM9.90267 18.1258C14.121 18.1258 17.5527 14.7442 17.5527 10.5567H16.3027C16.3027 14.04 13.4443 16.8758 9.90267 16.8758V18.1258ZM17.5527 10.5567V9.16751H16.3027V10.5567H17.5527ZM16.4885 8.72334L15.0835 10.1117L15.9627 11.0008L17.3677 9.61168L16.4885 8.72334ZM16.4885 9.61168L17.8943 11.0008L18.7727 10.1117L17.3677 8.72334L16.4885 9.61168ZM9.55517 18.1183C9.67073 18.1233 9.78656 18.1258 9.90267 18.1258V16.8758C9.80489 16.8758 9.70767 16.8736 9.611 16.8692L9.55517 18.1183ZM3.36767 14.4958C4.00815 15.5304 4.88566 16.3976 5.92767 17.0258L6.57267 15.955C5.70109 15.4296 4.96783 14.7043 4.43184 13.8392L3.36767 14.4958Z" fill="#94A0B4"/>
</g>
<defs>
<clipPath id="clip0_1759_13146">
<rect width="20" height="20" fill="white"/>
</clipPath>
</defs>
</svg>
