<svg width="32" height="32" viewBox="0 0 32 32" fill="none" xmlns="http://www.w3.org/2000/svg">
<path d="M24.2 29.55V7.8H27.1C27.8975 7.8 28.5804 8.0842 29.1488 8.6526C29.7172 9.221 30.001 9.90347 30 10.7V26.65C30 27.4475 29.7163 28.1304 29.1488 28.6988C28.5814 29.2672 27.8985 29.551 27.1 29.55H24.2ZM12.6 7.8H18.4V4.9H12.6V7.8ZM9.7 29.55V4.9C9.7 4.1025 9.9842 3.42003 10.5526 2.8526C11.121 2.28517 11.8035 2.00097 12.6 2H18.4C19.1975 2 19.8804 2.2842 20.4488 2.8526C21.0172 3.421 21.301 4.10347 21.3 4.9V29.55H9.7ZM3.9 29.55C3.1025 29.55 2.42003 29.2663 1.8526 28.6988C1.28517 28.1314 1.00097 27.4485 1 26.65V10.7C1 9.9025 1.2842 9.22003 1.8526 8.6526C2.421 8.08517 3.10347 7.80097 3.9 7.8H6.8V29.55H3.9Z" fill="#0085FF"/>
</svg>
