<svg xmlns="http://www.w3.org/2000/svg" width="26" height="26" viewBox="0 0 26 26" fill="none">
  <path d="M24.8999 12.9004C24.8999 18.5572 24.8999 21.3856 23.1419 23.1424C21.3863 24.9004 18.5567 24.9004 12.8999 24.9004C7.2431 24.9004 4.4147 24.9004 2.6567 23.1424C0.899902 21.3868 0.899902 18.5572 0.899902 12.9004C0.899902 7.24359 0.899902 4.41519 2.6567 2.65719C4.4159 0.900391 7.2431 0.900391 12.8999 0.900391" stroke="#0085FF" stroke-width="1.8" stroke-linecap="round"/>
  <path d="M0.899902 13.5004L3.0023 11.6608C3.52927 11.2001 4.2116 10.9568 4.91117 10.9802C5.61074 11.0036 6.27529 11.2919 6.7703 11.7868L11.9183 16.9348C12.3178 17.3342 12.8454 17.5799 13.4082 17.6286C13.971 17.6773 14.5329 17.526 14.9951 17.2012L15.3539 16.9492C16.0206 16.4809 16.8264 16.2527 17.6397 16.3017C18.4529 16.3508 19.2255 16.6742 19.8311 17.2192L23.6999 20.7004M16.4999 5.10039H20.6999M20.6999 5.10039H24.8999M20.6999 5.10039V9.30039M20.6999 5.10039V0.900391" stroke="#0085FF" stroke-width="1.8" stroke-linecap="round"/>
</svg>
