<svg width="19" height="20" viewBox="0 0 19 20" fill="none" xmlns="http://www.w3.org/2000/svg">
<path d="M2.926 4.01467V16.5287C2.92587 16.886 2.99616 17.2399 3.13286 17.5701C3.26955 17.9003 3.46997 18.2003 3.72267 18.453C3.97536 18.7057 4.27538 18.9061 4.60556 19.0428C4.93575 19.1795 5.28964 19.2498 5.647 19.2497H13.265C13.9864 19.2497 14.6782 18.9631 15.1883 18.453C15.6984 17.9429 15.985 17.2511 15.985 16.5297V4.01367M0.75 4.01467H18.162" stroke="#6B7A94" stroke-width="1.5" stroke-linecap="round" stroke-linejoin="round"/>
<path d="M6.19092 4.015V2.382C6.19066 2.16753 6.23272 1.95511 6.31471 1.75692C6.39669 1.55873 6.51698 1.37867 6.66869 1.22706C6.82039 1.07545 7.00052 0.955271 7.19876 0.873408C7.397 0.791544 7.60944 0.749608 7.82392 0.750003H11.0879C11.3024 0.749608 11.5148 0.791544 11.7131 0.873408C11.9113 0.955271 12.0914 1.07545 12.2432 1.22706C12.3949 1.37867 12.5151 1.55873 12.5971 1.75692C12.6791 1.95511 12.7212 2.16753 12.7209 2.382V4.015M7.27992 14.992V9.553M11.6329 14.992V9.553" stroke="#6B7A94" stroke-width="1.5" stroke-linecap="round" stroke-linejoin="round"/>
</svg>
