<svg xmlns="http://www.w3.org/2000/svg" width="20" height="20" viewBox="0 0 20 20" fill="none">
  <path opacity="0.5" d="M9.99976 2.16602C14.326 2.16602 17.8336 5.67282 17.8337 9.99902C17.8337 14.3254 14.3261 17.833 9.99976 17.833C5.67355 17.8328 2.16675 14.3253 2.16675 9.99902C2.16692 5.67292 5.67366 2.16619 9.99976 2.16602Z" fill="#566276" stroke="#566276"/>
  <path d="M7.47526 7.47431C7.59245 7.35727 7.7513 7.29153 7.91693 7.29153C8.08256 7.29153 8.24141 7.35727 8.3586 7.47431L10.0003 9.11598L11.6419 7.47431C11.6991 7.41291 11.7681 7.36366 11.8448 7.3295C11.9215 7.29534 12.0042 7.27697 12.0882 7.27549C12.1721 7.27401 12.2554 7.28944 12.3333 7.32088C12.4111 7.35231 12.4818 7.3991 12.5411 7.45845C12.6005 7.5178 12.6473 7.58849 12.6787 7.66632C12.7101 7.74414 12.7256 7.8275 12.7241 7.91142C12.7226 7.99534 12.7042 8.0781 12.6701 8.15476C12.6359 8.23143 12.5867 8.30043 12.5253 8.35765L10.8836 9.99931L12.5253 11.641C12.6357 11.7595 12.6958 11.9162 12.6929 12.0781C12.6901 12.24 12.6245 12.3945 12.5099 12.509C12.3954 12.6235 12.241 12.6891 12.079 12.692C11.9171 12.6948 11.7604 12.6347 11.6419 12.5243L10.0003 10.8826L8.3586 12.5243C8.24012 12.6347 8.08341 12.6948 7.9215 12.692C7.75958 12.6891 7.60509 12.6235 7.49058 12.509C7.37607 12.3945 7.31047 12.24 7.30762 12.0781C7.30476 11.9162 7.36486 11.7595 7.47526 11.641L9.11693 9.99931L7.47526 8.35765C7.35822 8.24046 7.29248 8.08161 7.29248 7.91598C7.29248 7.75036 7.35822 7.5915 7.47526 7.47431Z" fill="#566276"/>
</svg>
