<svg xmlns="http://www.w3.org/2000/svg" width="16" height="16" viewBox="0 0 16 16" fill="none">
  <path d="M3 14.4996H5.49988M12.9995 14.4996H7.99976M11.9602 5.81936L12.4239 5.35688C12.6065 5.17431 12.7514 4.95756 12.8502 4.71901C12.9491 4.48045 13 4.22477 13 3.96655C13 3.70832 12.9492 3.45263 12.8504 3.21405C12.7516 2.97547 12.6068 2.75869 12.4242 2.57608C12.2417 2.39347 12.0249 2.24861 11.7864 2.14976C11.5478 2.05092 11.2921 2.00003 11.0339 2C10.7757 1.99997 10.52 2.0508 10.2814 2.14959C10.0428 2.24838 9.82604 2.3932 9.64343 2.57577L9.1797 3.03949C9.1797 3.03949 9.23782 4.02445 10.1065 4.89316C10.9752 5.76186 11.9602 5.81999 11.9602 5.81999L9.83092 7.94988M7.69977 10.081C7.41104 10.3698 7.26729 10.5135 7.10793 10.6379C6.92002 10.7845 6.71815 10.9093 6.50233 11.0122C6.32046 11.0991 6.12672 11.1635 5.73987 11.2922L4.0987 11.8397L3.69809 11.9728C3.60468 12.004 3.50443 12.0086 3.40857 11.986C3.31272 11.9634 3.22505 11.9145 3.15542 11.8449C3.08578 11.7753 3.03692 11.6876 3.01433 11.5917C2.99173 11.4959 2.99629 11.3956 3.0275 11.3022L3.16062 10.901L3.70747 9.25982C3.83683 8.87296 3.90121 8.67922 3.98808 8.49736C4.09031 8.28239 4.21585 8.07931 4.36243 7.89176C4.48618 7.73239 4.63055 7.58865 4.91928 7.29991L9.1797 3.03887M4.0987 11.8397L3.16124 10.9016" stroke="#566276" stroke-linecap="round"/>
</svg>
