<svg width="24" height="24" viewBox="0 0 24 24" fill="none" xmlns="http://www.w3.org/2000/svg">
<path d="M21.0674 5C21.6594 5.958 22.0004 7.086 22.0004 8.293C22.0004 11.769 19.1704 14.587 15.6804 14.587C15.0444 14.587 13.5944 14.441 12.8894 13.855L12.0074 14.733C11.2724 15.465 11.8604 15.465 12.1544 16.05C12.1544 16.05 12.8894 17.075 12.1544 18.1C11.7134 18.685 10.4784 19.504 9.06845 18.1L8.77445 18.392C8.77445 18.392 9.65544 19.417 8.92144 20.442C8.48044 21.027 7.30445 21.612 6.27545 20.588L5.24745 21.612C4.54145 22.315 3.67945 21.905 3.33745 21.612L2.45445 20.734C1.63145 19.914 2.11145 19.026 2.45445 18.684L10.0964 11.074C10.0964 11.074 9.36145 9.904 9.36145 8.294C9.36145 4.818 12.1914 2 15.6814 2C16.5004 2 17.2824 2.155 18.0004 2.437" stroke="#2ED1BE" stroke-width="1.5" stroke-linecap="round" stroke-linejoin="round"/>
<path d="M17.8856 8.29391C17.8842 8.87721 17.6513 9.43611 17.238 9.84772C16.8247 10.2593 16.2649 10.49 15.6816 10.4889C15.3927 10.4896 15.1064 10.4333 14.8393 10.3234C14.5721 10.2134 14.3292 10.0519 14.1245 9.84808C13.9197 9.64425 13.7571 9.4021 13.6459 9.13543C13.5348 8.86876 13.4772 8.58281 13.4766 8.29391C13.4771 8.00491 13.5345 7.71886 13.6457 7.45208C13.7568 7.18529 13.9193 6.94302 14.1241 6.73909C14.3289 6.53516 14.5718 6.37357 14.839 6.26355C15.1063 6.15354 15.3926 6.09725 15.6816 6.09791C15.9705 6.09738 16.2567 6.15376 16.5238 6.26384C16.7909 6.37391 17.0337 6.53552 17.2384 6.73944C17.443 6.94336 17.6055 7.18559 17.7166 7.45231C17.8276 7.71902 17.885 8.005 17.8856 8.29391Z" stroke="#2ED1BE" stroke-width="1.5"/>
</svg>
