<svg width="66" height="20" viewBox="0 0 66 20" fill="none" xmlns="http://www.w3.org/2000/svg">
<path d="M9.9834 0C15.747 0 19.9668 4.20343 19.9668 9.96875C19.9668 15.734 15.7035 19.9375 9.9834 19.9375C4.2633 19.9375 1.82671e-05 15.7111 0 9.96875C0 4.24939 4.21978 2.04646e-05 9.9834 0ZM9.9834 4.19727C6.68703 4.19729 4.2041 6.53599 4.2041 9.96875C4.20412 13.4015 6.68705 15.7402 9.9834 15.7402C13.2798 15.7402 15.7627 13.4015 15.7627 9.96875C15.7627 6.53597 13.2798 4.19727 9.9834 4.19727Z" fill="#0085FF"/>
<path d="M38.9634 18.681V9.48272C38.9634 9.056 38.4086 8.91376 38.2088 9.26936L33.4595 17.8038H31.5065L26.7793 9.50643C26.5796 9.15083 26.047 9.29307 26.047 9.71979V18.681C26.047 19.3685 25.5365 19.9137 24.8929 19.9137H23.1619C22.5183 19.9137 22.0078 19.3685 22.0078 18.681V1.23275C22.0078 0.545257 22.5183 0 23.1619 0H24.9151C25.3146 0 25.6919 0.237068 25.9138 0.59267L32.2167 11.7586C32.372 12.0194 32.7493 12.0194 32.8825 11.7586L39.0966 0.616377C39.2963 0.237068 39.6736 0.0237068 40.0953 0.0237068H41.8263C42.4699 0.0237068 42.9804 0.568963 42.9804 1.25646L43.0248 18.7047C43.0248 19.3922 42.5143 19.9374 41.8707 19.9374H40.1396C39.496 19.9374 38.9856 19.3922 38.9856 18.7047L38.9634 18.681Z" fill="#0085FF"/>
<path d="M45.1265 9.96871C45.1265 4.24934 49.3459 0 55.1095 0C60.8732 0 65.0926 4.2034 65.0926 9.96871C65.0926 15.734 60.8297 19.9374 55.1095 19.9374C49.3894 19.9374 45.1265 15.6881 45.1265 9.96871ZM60.8296 9.96871C60.8296 6.29361 58.372 3.78995 55.1095 3.78995C51.8471 3.78995 49.3894 6.29361 49.3894 9.96871C49.3894 13.6438 51.8471 16.1475 55.1095 16.1475C58.372 16.1475 60.8296 13.6438 60.8296 9.96871Z" fill="#0085FF"/>
</svg>
