<svg width="24" height="24" viewBox="0 0 24 24" fill="none" xmlns="http://www.w3.org/2000/svg">
<path d="M3.68079 13L3.15279 13.532C3.29325 13.6713 3.48302 13.7494 3.68079 13.7494C3.87856 13.7494 4.06833 13.6713 4.20879 13.532L3.68079 13ZM5.88879 11.866C6.03015 11.7257 6.10999 11.535 6.11074 11.3359C6.11149 11.1367 6.03309 10.9454 5.89279 10.804C5.82332 10.734 5.74075 10.6784 5.64978 10.6403C5.55881 10.6022 5.46123 10.5825 5.36262 10.5821C5.16346 10.5813 4.97215 10.6597 4.83079 10.8L5.88879 11.866ZM2.52879 10.8C2.38678 10.6639 2.19697 10.589 2.00026 10.5915C1.80356 10.594 1.6157 10.6737 1.47719 10.8134C1.33868 10.953 1.2606 11.1416 1.25977 11.3383C1.25895 11.535 1.33545 11.7242 1.47279 11.865L2.52879 10.8ZM18.6168 7.39203C18.6671 7.4786 18.7342 7.55423 18.8141 7.61446C18.8941 7.67469 18.9853 7.7183 19.0824 7.74272C19.1795 7.76715 19.2804 7.77189 19.3794 7.75667C19.4783 7.74145 19.5732 7.70657 19.6585 7.6541C19.7437 7.60162 19.8176 7.53261 19.8758 7.45113C19.9339 7.36966 19.9752 7.27736 19.9971 7.17968C20.0191 7.08201 20.0212 6.98093 20.0035 6.88241C19.9857 6.78389 19.9484 6.68991 19.8938 6.60603L18.6168 7.39203ZM16.8938 3.60703C16.8099 3.55239 16.7159 3.5151 16.6174 3.49735C16.5189 3.4796 16.4178 3.48175 16.3201 3.50368C16.2225 3.52561 16.1302 3.56688 16.0487 3.62504C15.9672 3.6832 15.8982 3.75709 15.8457 3.84234C15.7933 3.92759 15.7584 4.02249 15.7432 4.12143C15.7279 4.22037 15.7327 4.32136 15.7571 4.41845C15.7815 4.51553 15.8251 4.60674 15.8854 4.6867C15.9456 4.76666 16.0212 4.83376 16.1078 4.88403L16.8938 3.60703ZM12.4638 3.75803C12.6606 3.76476 12.8522 3.6938 12.9971 3.56048C13.1421 3.42716 13.2288 3.24217 13.2385 3.04547C13.2482 2.84878 13.1802 2.65615 13.0491 2.50919C12.918 2.36223 12.7343 2.27274 12.5378 2.26003L12.4638 3.75803ZM12.0808 2.25003C7.03379 2.25003 2.93079 6.31103 2.93079 11.333H4.43079C4.43079 7.15103 7.85079 3.75003 12.0808 3.75003V2.25003ZM2.93079 11.333V13H4.43079V11.333H2.93079ZM4.21079 13.533L5.88879 11.866L4.83079 10.8L3.15079 12.467L4.21079 13.533ZM4.21079 12.468L2.52879 10.8L1.47179 11.865L3.15179 13.531L4.21079 12.468ZM19.8948 6.60803C19.1433 5.38704 18.1158 4.35948 16.8948 3.60803L16.1088 4.88503C17.1299 5.51318 17.9892 6.37222 18.6178 7.39303L19.8948 6.60803ZM12.5378 2.26003C12.3852 2.25248 12.2325 2.24881 12.0798 2.24903V3.74903C12.2085 3.74903 12.3365 3.75237 12.4638 3.75903L12.5378 2.26003ZM20.3138 11L20.8418 10.467C20.7014 10.3281 20.5118 10.2502 20.3143 10.2502C20.1168 10.2502 19.9272 10.3281 19.7868 10.467L20.3138 11ZM18.1008 12.133C18.0307 12.2023 17.975 12.2847 17.9368 12.3755C17.8986 12.4663 17.8786 12.5638 17.878 12.6623C17.8769 12.8613 17.9549 13.0525 18.0948 13.194C18.2347 13.3355 18.4251 13.4156 18.624 13.4168C18.823 13.4179 19.0143 13.3399 19.1558 13.2L18.1008 12.133ZM21.4738 13.2C21.5434 13.2711 21.6265 13.3276 21.7183 13.3663C21.81 13.4049 21.9084 13.4249 22.008 13.4251C22.1075 13.4253 22.206 13.4057 22.2979 13.3674C22.3898 13.3291 22.4731 13.273 22.543 13.2022C22.613 13.1314 22.6681 13.0474 22.7053 12.955C22.7424 12.8627 22.7608 12.7639 22.7594 12.6644C22.758 12.5649 22.7368 12.4667 22.697 12.3754C22.6572 12.2842 22.5997 12.2018 22.5278 12.133L21.4738 13.2ZM5.31879 16.606C5.2143 16.4367 5.04681 16.3158 4.85318 16.2699C4.65955 16.2241 4.45563 16.257 4.28629 16.3615C4.11695 16.466 3.99606 16.6335 3.9502 16.8271C3.90435 17.0208 3.9373 17.2247 4.04179 17.394L5.31879 16.606ZM11.5338 20.242C11.335 20.2333 11.1409 20.3039 10.9941 20.4382C10.8474 20.5726 10.76 20.7598 10.7513 20.9585C10.7425 21.1573 10.8131 21.3514 10.9475 21.4982C11.0818 21.6449 11.269 21.7323 11.4678 21.741L11.5338 20.242ZM7.11379 20.43C7.28419 20.5327 7.48839 20.5634 7.68146 20.5155C7.87453 20.4676 8.04065 20.3449 8.14329 20.1745C8.24593 20.0041 8.27667 19.7999 8.22876 19.6069C8.18084 19.4138 8.05819 19.2477 7.88779 19.145L7.11379 20.43ZM11.8838 21.75C16.9458 21.75 21.0638 17.692 21.0638 12.667H19.5638C19.5638 16.847 16.1338 20.25 11.8838 20.25V21.75ZM21.0638 12.667V11H19.5638V12.667H21.0638ZM19.7868 10.467L18.1008 12.133L19.1558 13.2L20.8418 11.533L19.7868 10.467ZM19.7868 11.533L21.4738 13.2L22.5278 12.133L20.8418 10.467L19.7868 11.533ZM11.4668 21.741C11.6055 21.747 11.7445 21.75 11.8838 21.75V20.25C11.7665 20.25 11.6498 20.2474 11.5338 20.242L11.4668 21.741ZM4.04179 17.394C4.81037 18.6355 5.86338 19.6761 7.11379 20.43L7.88779 19.145C6.8419 18.5145 5.96199 17.6442 5.31879 16.606L4.04179 17.394Z" fill="#2ED1BE"/>
</svg>
